General
Complete name                    : The Orphanage.mkv
Format                           : Matroska
File size                        : 841 MiB
Duration                         : 1h 41mn
Overall bit rate                 : 1 161 Kbps

Video
ID                               : 1
Format                           : AVC
Duration                         : 1h 41mn
Bit rate                         : 754 Kbps
Width                            : 720 pixels
Height                           : 436 pixels
Display aspect ratio             : 2.35:1
Frame rate                       : 25.000 fps
Resolution                       : 8 bits
Colorimetry                      : 4:2:0
Scan type                        : Progressive
Bits/(Pixel*Frame)               : 0.096
Stream size                      : 546 MiB (65%)
Writing library                  : x264 core 79


Audio
ID                               : 2
Format                           : AC-3
Format/Info                      : Audio Coding 3
Codec ID                         : A_AC3
Duration                         : 1h 41mn
Bit rate mode                    : Constant
Bit rate                         : 384 Kbps
Channel(s)                       : 6 channels
Channel positions                : Front: L C R, Surround: L R, LFE
Sampling rate                    : 48.0 KHz
Stream size                      : 278 MiB (33%)
Language                         : Spanish

Text #1
Language                         : Finnish

Text #2
Language                         : Danish

Text #3
Language                         : Swedish

Text #4
Language                         : Norwegian

Text #5
Language                         : English

